<?xml version="1.0" encoding="UTF-8"?>
<!DOCTYPE svg PUBLIC "-//W3C//DTD SVG 1.1//EN" "http://www.w3.org/Graphics/SVG/1.1/DTD/svg11.dtd">
<svg xmlns="http://www.w3.org/2000/svg" xmlns:xlink="http://www.w3.org/1999/xlink" version="1.1" width="3131px" height="1001px" viewBox="-0.5 -0.5 3131 1001" style="background-color: rgb(255, 255, 255);"><defs><clipPath id="mx-clip-4-361-382-26-0"><rect x="4" y="361" width="382" height="26"/></clipPath><clipPath id="mx-clip-4-387-382-26-0"><rect x="4" y="387" width="382" height="26"/></clipPath><clipPath id="mx-clip-4-413-382-26-0"><rect x="4" y="413" width="382" height="26"/></clipPath><clipPath id="mx-clip-4-439-382-26-0"><rect x="4" y="439" width="382" height="26"/></clipPath><clipPath id="mx-clip-4-465-382-26-0"><rect x="4" y="465" width="382" height="26"/></clipPath><clipPath id="mx-clip-4-491-382-26-0"><rect x="4" y="491" width="382" height="26"/></clipPath><clipPath id="mx-clip-4-517-382-26-0"><rect x="4" y="517" width="382" height="26"/></clipPath><clipPath id="mx-clip-624-771-292-26-0"><rect x="624" y="771" width="292" height="26"/></clipPath><clipPath id="mx-clip-624-797-292-26-0"><rect x="624" y="797" width="292" height="26"/></clipPath><clipPath id="mx-clip-624-823-292-26-0"><rect x="624" y="823" width="292" height="26"/></clipPath><clipPath id="mx-clip-624-849-292-26-0"><rect x="624" y="849" width="292" height="26"/></clipPath><clipPath id="mx-clip-624-875-292-26-0"><rect x="624" y="875" width="292" height="26"/></clipPath><clipPath id="mx-clip-624-201-482-26-0"><rect x="624" y="201" width="482" height="26"/></clipPath><clipPath id="mx-clip-624-227-482-26-0"><rect x="624" y="227" width="482" height="26"/></clipPath><clipPath id="mx-clip-624-253-482-26-0"><rect x="624" y="253" width="482" height="26"/></clipPath><clipPath id="mx-clip-624-279-482-26-0"><rect x="624" y="279" width="482" height="26"/></clipPath><clipPath id="mx-clip-624-305-482-26-0"><rect x="624" y="305" width="482" height="26"/></clipPath><clipPath id="mx-clip-624-331-482-26-0"><rect x="624" y="331" width="482" height="26"/></clipPath><clipPath id="mx-clip-624-357-482-26-0"><rect x="624" y="357" width="482" height="26"/></clipPath><clipPath id="mx-clip-1324-31-482-26-0"><rect x="1324" y="31" width="482" height="26"/></clipPath><clipPath id="mx-clip-1324-57-482-26-0"><rect x="1324" y="57" width="482" height="26"/></clipPath><clipPath id="mx-clip-1324-83-482-26-0"><rect x="1324" y="83" width="482" height="26"/></clipPath><clipPath id="mx-clip-1324-109-482-26-0"><rect x="1324" y="109" width="482" height="26"/></clipPath><clipPath id="mx-clip-1324-135-482-26-0"><rect x="1324" y="135" width="482" height="26"/></clipPath><clipPath id="mx-clip-1324-161-482-26-0"><rect x="1324" y="161" width="482" height="26"/></clipPath><clipPath id="mx-clip-1324-187-482-26-0"><rect x="1324" y="187" width="482" height="26"/></clipPath><clipPath id="mx-clip-2044-51-482-26-0"><rect x="2044" y="51" width="482" height="26"/></clipPath><clipPath id="mx-clip-2044-77-482-26-0"><rect x="2044" y="77" width="482" height="26"/></clipPath><clipPath id="mx-clip-2644-77-482-26-0"><rect x="2644" y="77" width="482" height="26"/></clipPath><clipPath id="mx-clip-2644-103-482-26-0"><rect x="2644" y="103" width="482" height="26"/></clipPath><clipPath id="mx-clip-2644-129-482-26-0"><rect x="2644" y="129" width="482" height="26"/></clipPath><clipPath id="mx-clip-634-611-362-26-0"><rect x="634" y="611" width="362" height="26"/></clipPath><clipPath id="mx-clip-634-645-362-26-0"><rect x="634" y="645" width="362" height="26"/></clipPath><clipPath id="mx-clip-1324-621-492-26-0"><rect x="1324" y="621" width="492" height="26"/></clipPath><clipPath id="mx-clip-1324-647-492-26-0"><rect x="1324" y="647" width="492" height="26"/></clipPath><clipPath id="mx-clip-1324-361-482-26-0"><rect x="1324" y="361" width="482" height="26"/></clipPath><clipPath id="mx-clip-1324-387-482-26-0"><rect x="1324" y="387" width="482" height="26"/></clipPath><clipPath id="mx-clip-1324-413-482-26-0"><rect x="1324" y="413" width="482" height="26"/></clipPath><clipPath id="mx-clip-2044-281-482-26-0"><rect x="2044" y="281" width="482" height="26"/></clipPath><clipPath id="mx-clip-2044-307-482-26-0"><rect x="2044" y="307" width="482" height="26"/></clipPath><clipPath id="mx-clip-2044-333-482-26-0"><rect x="2044" y="333" width="482" height="26"/></clipPath><clipPath id="mx-clip-2044-359-482-26-0"><rect x="2044" y="359" width="482" height="26"/></clipPath><clipPath id="mx-clip-1324-791-292-26-0"><rect x="1324" y="791" width="292" height="26"/></clipPath><clipPath id="mx-clip-1324-817-292-26-0"><rect x="1324" y="817" width="292" height="26"/></clipPath><clipPath id="mx-clip-1324-931-292-26-0"><rect x="1324" y="931" width="292" height="26"/></clipPath><clipPath id="mx-clip-1324-957-292-26-0"><rect x="1324" y="957" width="292" height="26"/></clipPath></defs><g><path d="M 0 356 L 0 330 L 390 330 L 390 356" fill="rgb(255, 255, 255)" stroke="rgb(0, 0, 0)" stroke-miterlimit="10" pointer-events="all"/><path d="M 0 356 L 0 572 L 390 572 L 390 356" fill="none" stroke="rgb(0, 0, 0)" stroke-miterlimit="10" pointer-events="none"/><path d="M 0 356 L 390 356" fill="none" stroke="rgb(0, 0, 0)" stroke-miterlimit="10" pointer-events="none"/><g fill="rgb(0, 0, 0)" font-family="Helvetica" font-style="italic" pointer-events="none" text-anchor="middle" font-size="12px"><text x="194.5" y="347.5">TxGraphImpl</text></g><g fill="rgb(0, 0, 0)" font-family="Helvetica" pointer-events="none" clip-path="url(#mx-clip-4-361-382-26-0)" font-size="12px"><text x="5.5" y="373.5">ClusterSet m_main_clusterset;</text></g><g fill="rgb(0, 0, 0)" font-family="Helvetica" pointer-events="none" clip-path="url(#mx-clip-4-387-382-26-0)" font-size="12px"><text x="5.5" y="399.5">std::optional&lt;ClusterSet&gt; m_staging_clusterset;</text></g><g fill="rgb(0, 0, 0)" font-family="Helvetica" pointer-events="none" clip-path="url(#mx-clip-4-413-382-26-0)" font-size="12px"><text x="5.5" y="425.5">ChunkIndex m_main_chunkindex;</text></g><g fill="rgb(0, 0, 0)" font-family="Helvetica" pointer-events="none" clip-path="url(#mx-clip-4-439-382-26-0)" font-size="12px"><text x="5.5" y="451.5">size_t m_main_chunkindex_observers</text></g><g fill="rgb(0, 0, 0)" font-family="Helvetica" pointer-events="none" clip-path="url(#mx-clip-4-465-382-26-0)" font-size="12px"><text x="5.5" y="477.5">std::vector&lt;ChunkIndex::node_type&gt; m_main_chunkindex_discarded;</text></g><rect x="0" y="486" width="390" height="26" fill="#ff3333" stroke="none" pointer-events="none"/><g fill="rgb(0, 0, 0)" font-family="Helvetica" pointer-events="none" clip-path="url(#mx-clip-4-491-382-26-0)" font-size="12px"><text x="5.5" y="503.5">std::vector&lt;Entry&gt; m_entries;</text></g><g fill="rgb(0, 0, 0)" font-family="Helvetica" pointer-events="none" clip-path="url(#mx-clip-4-517-382-26-0)" font-size="12px"><text x="5.5" y="529.5">std::vector&lt;GraphIndex&gt; m_unlinked;</text></g><path d="M 0 542 L 390 542" fill="none" stroke="rgb(0, 0, 0)" stroke-miterlimit="10" pointer-events="none"/><path d="M 620 766 L 620 740 L 920 740 L 920 766" fill="rgb(255, 255, 255)" stroke="rgb(0, 0, 0)" stroke-miterlimit="10" pointer-events="none"/><path d="M 620 766 L 620 920 L 920 920 L 920 766" fill="none" stroke="rgb(0, 0, 0)" stroke-miterlimit="10" pointer-events="none"/><path d="M 620 766 L 920 766" fill="none" stroke="rgb(0, 0, 0)" stroke-miterlimit="10" pointer-events="none"/><g fill="rgb(0, 0, 0)" font-family="Helvetica" pointer-events="none" text-anchor="middle" font-size="12px"><text x="769.5" y="757.5">TxGraphImpl::Entry</text></g><g fill="rgb(0, 0, 0)" font-family="Helvetica" pointer-events="none" clip-path="url(#mx-clip-624-771-292-26-0)" font-size="12px"><text x="625.5" y="783.5">Ref* m_ref;</text></g><g fill="rgb(0, 0, 0)" font-family="Helvetica" pointer-events="none" clip-path="url(#mx-clip-624-797-292-26-0)" font-size="12px"><text x="625.5" y="809.5">ChunkIndex::iterator m_main_chunkindex_iterator;</text></g><g fill="rgb(0, 0, 0)" font-family="Helvetica" pointer-events="none" clip-path="url(#mx-clip-624-823-292-26-0)" font-size="12px"><text x="625.5" y="835.5">Locator m_locator[MAX_LEVELS];</text></g><g fill="rgb(0, 0, 0)" font-family="Helvetica" pointer-events="none" clip-path="url(#mx-clip-624-849-292-26-0)" font-size="12px"><text x="625.5" y="861.5">FeePerWeight m_main_chunk_feerate;</text></g><g fill="rgb(0, 0, 0)" font-family="Helvetica" pointer-events="none" clip-path="url(#mx-clip-624-875-292-26-0)" font-size="12px"><text x="625.5" y="887.5">LinearizationIndex m_main_lin_index;</text></g><path d="M 620 900 L 920 900" fill="none" stroke="rgb(0, 0, 0)" stroke-miterlimit="10" pointer-events="none"/><path d="M 390 499 L 618.69 747.55" fill="none" stroke="rgb(0, 0, 0)" stroke-miterlimit="10" pointer-events="none"/><path d="M 622.24 751.42 L 614.93 748.64 L 618.69 747.55 L 620.08 743.9 Z" fill="rgb(0, 0, 0)" stroke="rgb(0, 0, 0)" stroke-miterlimit="10" pointer-events="none"/><path d="M 620 196 L 620 170 L 1110 170 L 1110 196" fill="rgb(255, 255, 255)" stroke="rgb(0, 0, 0)" stroke-miterlimit="10" pointer-events="none"/><path d="M 620 196 L 620 410 L 1110 410 L 1110 196" fill="none" stroke="rgb(0, 0, 0)" stroke-miterlimit="10" pointer-events="none"/><path d="M 620 196 L 1110 196" fill="none" stroke="rgb(0, 0, 0)" stroke-miterlimit="10" pointer-events="none"/><g fill="rgb(0, 0, 0)" font-family="Helvetica" pointer-events="none" text-anchor="middle" font-size="12px"><text x="864.5" y="187.5">ClusterSet</text></g><g fill="rgb(0, 0, 0)" font-family="Helvetica" pointer-events="none" clip-path="url(#mx-clip-624-201-482-26-0)" font-size="12px"><text x="625.5" y="213.5">std::array&lt;std::vector&lt;std::unique_ptr&lt;Cluster&gt;&gt;, int(QualityLevel::NONE)&gt; m_clusters;</text></g><g fill="rgb(0, 0, 0)" font-family="Helvetica" pointer-events="none" clip-path="url(#mx-clip-624-227-482-26-0)" font-size="12px"><text x="625.5" y="239.5">std::vector&lt;GraphIndex&gt; m_to_remove;</text></g><g fill="rgb(0, 0, 0)" font-family="Helvetica" pointer-events="none" clip-path="url(#mx-clip-624-253-482-26-0)" font-size="12px"><text x="625.5" y="265.5">std::vector&lt;std::pair&lt;GraphIndex, GraphIndex&gt;&gt; m_deps_to_add;</text></g><g fill="rgb(0, 0, 0)" font-family="Helvetica" pointer-events="none" clip-path="url(#mx-clip-624-279-482-26-0)" font-size="12px"><text x="625.5" y="291.5">std::optional&lt;GroupData&gt; m_group_data = GroupData{};</text></g><g fill="rgb(0, 0, 0)" font-family="Helvetica" pointer-events="none" clip-path="url(#mx-clip-624-305-482-26-0)" font-size="12px"><text x="625.5" y="317.5">std::vector&lt;GraphIndex&gt; m_removed;</text></g><g fill="rgb(0, 0, 0)" font-family="Helvetica" pointer-events="none" clip-path="url(#mx-clip-624-331-482-26-0)" font-size="12px"><text x="625.5" y="343.5">GraphIndex m_txcount{0};</text></g><g fill="rgb(0, 0, 0)" font-family="Helvetica" pointer-events="none" clip-path="url(#mx-clip-624-357-482-26-0)" font-size="12px"><text x="625.5" y="369.5">std::optional&lt;bool&gt; m_oversized{false};</text></g><path d="M 620 382 L 1110 382" fill="none" stroke="rgb(0, 0, 0)" stroke-miterlimit="10" pointer-events="none"/><path d="M 390 369 L 616.95 190.73" fill="none" stroke="rgb(0, 0, 0)" stroke-miterlimit="10" pointer-events="none"/><path d="M 621.08 187.49 L 617.74 194.57 L 616.95 190.73 L 613.41 189.06 Z" fill="rgb(0, 0, 0)" stroke="rgb(0, 0, 0)" stroke-miterlimit="10" pointer-events="none"/><path d="M 1320 26 L 1320 0 L 1810 0 L 1810 26" fill="rgb(255, 255, 255)" stroke="rgb(0, 0, 0)" stroke-miterlimit="10" pointer-events="none"/><path d="M 1320 26 L 1320 240 L 1810 240 L 1810 26" fill="none" stroke="rgb(0, 0, 0)" stroke-miterlimit="10" pointer-events="none"/><path d="M 1320 26 L 1810 26" fill="none" stroke="rgb(0, 0, 0)" stroke-miterlimit="10" pointer-events="none"/><g fill="rgb(0, 0, 0)" font-family="Helvetica" pointer-events="none" text-anchor="middle" font-size="12px"><text x="1564.5" y="17.5">Cluster</text></g><g fill="rgb(0, 0, 0)" font-family="Helvetica" pointer-events="none" clip-path="url(#mx-clip-1324-31-482-26-0)" font-size="12px"><text x="1325.5" y="43.5">DepGraph&lt;SetType&gt; m_depgraph;</text></g><g fill="rgb(0, 0, 0)" font-family="Helvetica" pointer-events="none" clip-path="url(#mx-clip-1324-57-482-26-0)" font-size="12px"><text x="1325.5" y="69.5">std::vector&lt;GraphIndex&gt; m_mapping; // DepGraphIndex -&gt; GraphIndex</text></g><g fill="rgb(0, 0, 0)" font-family="Helvetica" pointer-events="none" clip-path="url(#mx-clip-1324-83-482-26-0)" font-size="12px"><text x="1325.5" y="95.5">std::vector&lt;DepGraphIndex&gt; m_linearization;</text></g><g fill="rgb(0, 0, 0)" font-family="Helvetica" pointer-events="none" clip-path="url(#mx-clip-1324-109-482-26-0)" font-size="12px"><text x="1325.5" y="121.5">QualityLevel m_quality</text></g><g fill="rgb(0, 0, 0)" font-family="Helvetica" pointer-events="none" clip-path="url(#mx-clip-1324-135-482-26-0)" font-size="12px"><text x="1325.5" y="147.5">ClusterSetIndex m_setindex; // index in m_clusters[m_quality]</text></g><g fill="rgb(0, 0, 0)" font-family="Helvetica" pointer-events="none" clip-path="url(#mx-clip-1324-161-482-26-0)" font-size="12px"><text x="1325.5" y="173.5">int m_level{-1};</text></g><g fill="rgb(0, 0, 0)" font-family="Helvetica" pointer-events="none" clip-path="url(#mx-clip-1324-187-482-26-0)" font-size="12px"><text x="1325.5" y="199.5">uint64_t m_sequence;</text></g><path d="M 1320 212 L 1810 212" fill="none" stroke="rgb(0, 0, 0)" stroke-miterlimit="10" pointer-events="none"/><path d="M 1110 209 L 1313.38 19.46" fill="none" stroke="rgb(0, 0, 0)" stroke-miterlimit="10" pointer-events="none"/><path d="M 1317.22 15.88 L 1314.49 23.22 L 1313.38 19.46 L 1309.71 18.09 Z" fill="rgb(0, 0, 0)" stroke="rgb(0, 0, 0)" stroke-miterlimit="10" pointer-events="none"/><path d="M 2040 46 L 2040 20 L 2530 20 L 2530 46" fill="rgb(255, 255, 255)" stroke="rgb(0, 0, 0)" stroke-miterlimit="10" pointer-events="none"/><path d="M 2040 46 L 2040 130 L 2530 130 L 2530 46" fill="none" stroke="rgb(0, 0, 0)" stroke-miterlimit="10" pointer-events="none"/><path d="M 2040 46 L 2530 46" fill="none" stroke="rgb(0, 0, 0)" stroke-miterlimit="10" pointer-events="none"/><g fill="rgb(0, 0, 0)" font-family="Helvetica" pointer-events="none" text-anchor="middle" font-size="12px"><text x="2284.5" y="37.5">DepGraph&lt;SetType&gt;(using SetType = BitSet&lt;MAX_CLUSTER_COUNT_LIMIT&gt;;)</text></g><rect x="2040" y="46" width="490" height="26" fill="#ff3333" stroke="none" pointer-events="none"/><g fill="rgb(0, 0, 0)" font-family="Helvetica" pointer-events="none" clip-path="url(#mx-clip-2044-51-482-26-0)" font-size="12px"><text x="2045.5" y="63.5">std::vector&lt;Entry&gt; entries;</text></g><g fill="rgb(0, 0, 0)" font-family="Helvetica" pointer-events="none" clip-path="url(#mx-clip-2044-77-482-26-0)" font-size="12px"><text x="2045.5" y="89.5">SetType m_used;</text></g><path d="M 2040 102 L 2530 102" fill="none" stroke="rgb(0, 0, 0)" stroke-miterlimit="10" pointer-events="none"/><path d="M 2640 72 L 2640 46 L 3130 46 L 3130 72" fill="rgb(255, 255, 255)" stroke="rgb(0, 0, 0)" stroke-miterlimit="10" pointer-events="none"/><path d="M 2640 72 L 2640 158 L 3130 158 L 3130 72" fill="none" stroke="rgb(0, 0, 0)" stroke-miterlimit="10" pointer-events="none"/><path d="M 2640 72 L 3130 72" fill="none" stroke="rgb(0, 0, 0)" stroke-miterlimit="10" pointer-events="none"/><g fill="rgb(0, 0, 0)" font-family="Helvetica" pointer-events="none" text-anchor="middle" font-size="12px"><text x="2884.5" y="63.5">DepGraph::Entry</text></g><g fill="rgb(0, 0, 0)" font-family="Helvetica" pointer-events="none" clip-path="url(#mx-clip-2644-77-482-26-0)" font-size="12px"><text x="2645.5" y="89.5">FeeFrac feerate;</text></g><g fill="rgb(0, 0, 0)" font-family="Helvetica" pointer-events="none" clip-path="url(#mx-clip-2644-103-482-26-0)" font-size="12px"><text x="2645.5" y="115.5">SetType ancestors;</text></g><g fill="rgb(0, 0, 0)" font-family="Helvetica" pointer-events="none" clip-path="url(#mx-clip-2644-129-482-26-0)" font-size="12px"><text x="2645.5" y="141.5">SetType descendants;</text></g><path d="M 2640 154 L 3130 154" fill="none" stroke="rgb(0, 0, 0)" stroke-miterlimit="10" pointer-events="none"/><path d="M 1810 39 L 2035.1 36.03" fill="none" stroke="rgb(0, 0, 0)" stroke-miterlimit="10" pointer-events="none"/><path d="M 2040.35 35.96 L 2033.4 39.56 L 2035.1 36.03 L 2033.31 32.56 Z" fill="rgb(0, 0, 0)" stroke="rgb(0, 0, 0)" stroke-miterlimit="10" pointer-events="none"/><path d="M 2530 59 L 2634.61 60.36" fill="none" stroke="rgb(0, 0, 0)" stroke-miterlimit="10" pointer-events="none"/><path d="M 2639.86 60.43 L 2632.82 63.84 L 2634.61 60.36 L 2632.91 56.84 Z" fill="rgb(0, 0, 0)" stroke="rgb(0, 0, 0)" stroke-miterlimit="10" pointer-events="none"/><path d="M 620 805 L 393.27 426.46" fill="none" stroke="rgb(0, 0, 0)" stroke-miterlimit="10" stroke-dasharray="3 3" pointer-events="none"/><path d="M 390.57 421.96 L 397.17 426.17 L 393.27 426.46 L 391.17 429.76 Z" fill="rgb(0, 0, 0)" stroke="rgb(0, 0, 0)" stroke-miterlimit="10" pointer-events="none"/><path d="M 390 421 L 625.95 591.48" fill="none" stroke="rgb(0, 0, 0)" stroke-miterlimit="10" pointer-events="none"/><path d="M 630.2 594.56 L 622.48 593.29 L 625.95 591.48 L 626.58 587.62 Z" fill="rgb(0, 0, 0)" stroke="rgb(0, 0, 0)" stroke-miterlimit="10" pointer-events="none"/><path d="M 920 883 L 1110 430 L 1316.65 96.41" fill="none" stroke="rgb(0, 0, 0)" stroke-miterlimit="10" stroke-dasharray="3 3" pointer-events="none"/><path d="M 1319.41 91.95 L 1318.7 99.74 L 1316.65 96.41 L 1312.75 96.06 Z" fill="rgb(0, 0, 0)" stroke="rgb(0, 0, 0)" stroke-miterlimit="10" pointer-events="none"/><path d="M 630 606 L 630 580 L 1000 580 L 1000 606" fill="rgb(255, 255, 255)" stroke="rgb(0, 0, 0)" stroke-miterlimit="10" pointer-events="none"/><path d="M 630 606 L 630 670 L 1000 670 L 1000 606" fill="none" stroke="rgb(0, 0, 0)" stroke-miterlimit="10" pointer-events="none"/><path d="M 630 606 L 1000 606" fill="none" stroke="rgb(0, 0, 0)" stroke-miterlimit="10" pointer-events="none"/><g fill="rgb(0, 0, 0)" font-family="Helvetica" pointer-events="none" text-anchor="middle" font-size="12px"><text x="814.5" y="597.5">using ChunkIndex = std::set&lt;ChunkData, ChunkOrder&gt;;</text></g><g fill="rgb(0, 0, 0)" font-family="Helvetica" pointer-events="none" clip-path="url(#mx-clip-634-611-362-26-0)" font-size="12px"><text x="635.5" y="623.5">CHunkData</text></g><path d="M 630 636 L 1000 636" fill="none" stroke="rgb(0, 0, 0)" stroke-miterlimit="10" pointer-events="none"/><g fill="rgb(0, 0, 0)" font-family="Helvetica" pointer-events="none" clip-path="url(#mx-clip-634-645-362-26-0)" font-size="12px"><text x="635.5" y="657.5">ChunkOrder</text></g><path d="M 1320 616 L 1320 590 L 1820 590 L 1820 616" fill="rgb(255, 255, 255)" stroke="rgb(0, 0, 0)" stroke-miterlimit="10" pointer-events="none"/><path d="M 1320 616 L 1320 680 L 1820 680 L 1820 616" fill="none" stroke="rgb(0, 0, 0)" stroke-miterlimit="10" pointer-events="none"/><path d="M 1320 616 L 1820 616" fill="none" stroke="rgb(0, 0, 0)" stroke-miterlimit="10" pointer-events="none"/><g fill="rgb(0, 0, 0)" font-family="Helvetica" pointer-events="none" text-anchor="middle" font-size="12px"><text x="1569.5" y="607.5">ChunkData</text></g><g fill="rgb(0, 0, 0)" font-family="Helvetica" pointer-events="none" clip-path="url(#mx-clip-1324-621-492-26-0)" font-size="12px"><text x="1325.5" y="633.5">mutable GraphIndex m_graph_index; // The Entry which is the last transaction of the chunk.</text></g><g fill="rgb(0, 0, 0)" font-family="Helvetica" pointer-events="none" clip-path="url(#mx-clip-1324-647-492-26-0)" font-size="12px"><text x="1325.5" y="659.5">LinearizationIndex m_chunk_count; // How many transactions the chunk contains</text></g><path d="M 1320 672 L 1820 672" fill="none" stroke="rgb(0, 0, 0)" stroke-miterlimit="10" pointer-events="none"/><path d="M 1000 619 L 1315.14 602.31" fill="none" stroke="rgb(0, 0, 0)" stroke-miterlimit="10" pointer-events="none"/><path d="M 1320.38 602.03 L 1313.58 605.89 L 1315.14 602.31 L 1313.21 598.9 Z" fill="rgb(0, 0, 0)" stroke="rgb(0, 0, 0)" stroke-miterlimit="10" pointer-events="none"/><path d="M 1320 356 L 1320 330 L 1810 330 L 1810 356" fill="rgb(255, 255, 255)" stroke="rgb(0, 0, 0)" stroke-miterlimit="10" pointer-events="none"/><path d="M 1320 356 L 1320 460 L 1810 460 L 1810 356" fill="none" stroke="rgb(0, 0, 0)" stroke-miterlimit="10" pointer-events="none"/><path d="M 1320 356 L 1810 356" fill="none" stroke="rgb(0, 0, 0)" stroke-miterlimit="10" pointer-events="none"/><g fill="rgb(0, 0, 0)" font-family="Helvetica" pointer-events="none" text-anchor="middle" font-size="12px"><text x="1564.5" y="347.5">GroupData</text></g><g fill="rgb(0, 0, 0)" font-family="Helvetica" pointer-events="none" clip-path="url(#mx-clip-1324-361-482-26-0)" font-size="12px"><text x="1325.5" y="373.5">std::vector&lt;GroupEntry&gt; m_groups;</text></g><g fill="rgb(0, 0, 0)" font-family="Helvetica" pointer-events="none" clip-path="url(#mx-clip-1324-387-482-26-0)" font-size="12px"><text x="1325.5" y="399.5">std::vector&lt;Cluster*&gt; m_group_clusters;</text></g><g fill="rgb(0, 0, 0)" font-family="Helvetica" pointer-events="none" clip-path="url(#mx-clip-1324-413-482-26-0)" font-size="12px"><text x="1325.5" y="425.5">bool m_group_oversized;</text></g><path d="M 1320 438 L 1810 438" fill="none" stroke="rgb(0, 0, 0)" stroke-miterlimit="10" pointer-events="none"/><path d="M 2040 276 L 2040 250 L 2530 250 L 2530 276" fill="rgb(255, 255, 255)" stroke="rgb(0, 0, 0)" stroke-miterlimit="10" pointer-events="none"/><path d="M 2040 276 L 2040 388 L 2530 388 L 2530 276" fill="none" stroke="rgb(0, 0, 0)" stroke-miterlimit="10" pointer-events="none"/><path d="M 2040 276 L 2530 276" fill="none" stroke="rgb(0, 0, 0)" stroke-miterlimit="10" pointer-events="none"/><g fill="rgb(0, 0, 0)" font-family="Helvetica" pointer-events="none" text-anchor="middle" font-size="12px"><text x="2284.5" y="267.5">GroupEntry</text></g><g fill="rgb(0, 0, 0)" font-family="Helvetica" pointer-events="none" clip-path="url(#mx-clip-2044-281-482-26-0)" font-size="12px"><text x="2045.5" y="293.5">uint32_t m_cluster_offset;</text></g><g fill="rgb(0, 0, 0)" font-family="Helvetica" pointer-events="none" clip-path="url(#mx-clip-2044-307-482-26-0)" font-size="12px"><text x="2045.5" y="319.5">uint32_t m_cluster_count;</text></g><g fill="rgb(0, 0, 0)" font-family="Helvetica" pointer-events="none" clip-path="url(#mx-clip-2044-333-482-26-0)" font-size="12px"><text x="2045.5" y="345.5">uint32_t m_deps_offset;</text></g><g fill="rgb(0, 0, 0)" font-family="Helvetica" pointer-events="none" clip-path="url(#mx-clip-2044-359-482-26-0)" font-size="12px"><text x="2045.5" y="371.5">uint32_t m_deps_count;</text></g><path d="M 2040 384 L 2530 384" fill="none" stroke="rgb(0, 0, 0)" stroke-miterlimit="10" pointer-events="none"/><path d="M 1110 287 L 1315.32 342.51" fill="none" stroke="rgb(0, 0, 0)" stroke-miterlimit="10" pointer-events="none"/><path d="M 1320.39 343.88 L 1312.72 345.43 L 1315.32 342.51 L 1314.55 338.67 Z" fill="rgb(0, 0, 0)" stroke="rgb(0, 0, 0)" stroke-miterlimit="10" pointer-events="none"/><path d="M 1810 369 L 2035.17 268.47" fill="none" stroke="rgb(0, 0, 0)" stroke-miterlimit="10" pointer-events="none"/><path d="M 2039.96 266.33 L 2034.99 272.38 L 2035.17 268.47 L 2032.14 265.98 Z" fill="rgb(0, 0, 0)" stroke="rgb(0, 0, 0)" stroke-miterlimit="10" pointer-events="none"/><path d="M 1110 261 L 1800 290 L 1856.18 215.09" fill="none" stroke="rgb(0, 0, 0)" stroke-miterlimit="10" pointer-events="none"/><path d="M 1859.33 210.89 L 1857.93 218.59 L 1856.18 215.09 L 1852.33 214.39 Z" fill="rgb(0, 0, 0)" stroke="rgb(0, 0, 0)" stroke-miterlimit="10" pointer-events="none"/><path d="M 1320 786 L 1320 760 L 1620 760 L 1620 786" fill="rgb(255, 255, 255)" stroke="rgb(0, 0, 0)" stroke-miterlimit="10" pointer-events="none"/><path d="M 1320 786 L 1320 860 L 1620 860 L 1620 786" fill="none" stroke="rgb(0, 0, 0)" stroke-miterlimit="10" pointer-events="none"/><path d="M 1320 786 L 1620 786" fill="none" stroke="rgb(0, 0, 0)" stroke-miterlimit="10" pointer-events="none"/><g fill="rgb(0, 0, 0)" font-family="Helvetica" pointer-events="none" text-anchor="middle" font-size="12px"><text x="1469.5" y="777.5">TxGraph::Ref</text></g><g fill="rgb(0, 0, 0)" font-family="Helvetica" pointer-events="none" clip-path="url(#mx-clip-1324-791-292-26-0)" font-size="12px"><text x="1325.5" y="803.5">TxGraph* m_graph = nullptr;</text></g><g fill="rgb(0, 0, 0)" font-family="Helvetica" pointer-events="none" clip-path="url(#mx-clip-1324-817-292-26-0)" font-size="12px"><text x="1325.5" y="829.5">GraphIndex m_index = GraphIndex(-1);</text></g><path d="M 1320 842 L 1620 842" fill="none" stroke="rgb(0, 0, 0)" stroke-miterlimit="10" pointer-events="none"/><path d="M 920 779 L 1314.83 775.95" fill="none" stroke="rgb(0, 0, 0)" stroke-miterlimit="10" pointer-events="none"/><path d="M 1320.08 775.91 L 1313.11 779.46 L 1314.83 775.95 L 1313.06 772.46 Z" fill="rgb(0, 0, 0)" stroke="rgb(0, 0, 0)" stroke-miterlimit="10" pointer-events="none"/><path d="M 1320 825 L 928.67 755.34" fill="none" stroke="rgb(0, 0, 0)" stroke-miterlimit="10" stroke-dasharray="3 3" pointer-events="none"/><path d="M 923.5 754.42 L 931.01 752.2 L 928.67 755.34 L 929.78 759.09 Z" fill="rgb(0, 0, 0)" stroke="rgb(0, 0, 0)" stroke-miterlimit="10" pointer-events="none"/><path d="M 1320 926 L 1320 900 L 1620 900 L 1620 926" fill="rgb(255, 255, 255)" stroke="rgb(0, 0, 0)" stroke-miterlimit="10" pointer-events="none"/><path d="M 1320 926 L 1320 1000 L 1620 1000 L 1620 926" fill="none" stroke="rgb(0, 0, 0)" stroke-miterlimit="10" pointer-events="none"/><path d="M 1320 926 L 1620 926" fill="none" stroke="rgb(0, 0, 0)" stroke-miterlimit="10" pointer-events="none"/><g fill="rgb(0, 0, 0)" font-family="Helvetica" pointer-events="none" text-anchor="middle" font-size="12px"><text x="1469.5" y="917.5">TxGraphImpl::Locator</text></g><g fill="rgb(0, 0, 0)" font-family="Helvetica" pointer-events="none" clip-path="url(#mx-clip-1324-931-292-26-0)" font-size="12px"><text x="1325.5" y="943.5">Cluster* cluster{nullptr};</text></g><g fill="rgb(0, 0, 0)" font-family="Helvetica" pointer-events="none" clip-path="url(#mx-clip-1324-957-292-26-0)" font-size="12px"><text x="1325.5" y="969.5">DepGraphIndex index{0};</text></g><path d="M 1320 982 L 1620 982" fill="none" stroke="rgb(0, 0, 0)" stroke-miterlimit="10" pointer-events="none"/><path d="M 920 831 L 1313.78 916.2" fill="none" stroke="rgb(0, 0, 0)" stroke-miterlimit="10" pointer-events="none"/><path d="M 1318.91 917.31 L 1311.33 919.25 L 1313.78 916.2 L 1312.81 912.41 Z" fill="rgb(0, 0, 0)" stroke="rgb(0, 0, 0)" stroke-miterlimit="10" pointer-events="none"/><rect x="1870" y="510" width="50" height="30" fill="none" stroke="rgb(0, 0, 0)" pointer-events="none"/><rect x="1920" y="510" width="50" height="30" fill="none" stroke="rgb(0, 0, 0)" pointer-events="none"/><rect x="1970" y="510" width="50" height="30" fill="none" stroke="rgb(0, 0, 0)" pointer-events="none"/><rect x="2020" y="510" width="50" height="30" fill="none" stroke="rgb(0, 0, 0)" pointer-events="none"/><rect x="2070" y="510" width="50" height="30" fill="none" stroke="rgb(0, 0, 0)" pointer-events="none"/><rect x="2120" y="510" width="50" height="30" fill="none" stroke="rgb(0, 0, 0)" pointer-events="none"/><path d="M 1810 395 L 1867.33 519.22" fill="none" stroke="rgb(0, 0, 0)" stroke-miterlimit="10" pointer-events="none"/><path d="M 1869.53 523.98 L 1863.42 519.1 L 1867.33 519.22 L 1869.78 516.16 Z" fill="rgb(0, 0, 0)" stroke="rgb(0, 0, 0)" stroke-miterlimit="10" pointer-events="none"/><path d="M 2040 289 L 1920 289 L 1920 499.9" fill="none" stroke="#ff8000" stroke-width="3" stroke-miterlimit="10" stroke-dasharray="9 9" pointer-events="none"/><path d="M 1920 506.65 L 1915.5 497.65 L 1920 499.9 L 1924.5 497.65 Z" fill="#ff8000" stroke="#ff8000" stroke-width="3" stroke-miterlimit="10" pointer-events="none"/><path d="M 2040 315 L 1995 315 L 1995 471.9" fill="none" stroke="#ff8000" stroke-width="3" stroke-miterlimit="10" stroke-dasharray="9 9" pointer-events="none"/><path d="M 1995 478.65 L 1990.5 469.65 L 1995 471.9 L 1999.5 469.65 Z" fill="#ff8000" stroke="#ff8000" stroke-width="3" stroke-miterlimit="10" pointer-events="none"/><path d="M 2005 415 L 2000 415 Q 1995 415 1995 425 L 1995 480 Q 1995 490 1990 490 L 1987.5 490 Q 1985 490 1990 490 L 1992.5 490 Q 1995 490 1995 500 L 1995 555 Q 1995 565 2000 565 L 2005 565" fill="none" stroke="rgb(0, 0, 0)" stroke-miterlimit="10" transform="translate(1995,0)scale(-1,1)translate(-1995,0)rotate(90,1995,490)" pointer-events="none"/><rect x="1860" y="180" width="50" height="30" fill="none" stroke="rgb(0, 0, 0)" pointer-events="none"/><rect x="1910" y="180" width="50" height="30" fill="none" stroke="rgb(0, 0, 0)" pointer-events="none"/><rect x="1960" y="180" width="50" height="30" fill="none" stroke="rgb(0, 0, 0)" pointer-events="none"/><rect x="2010" y="180" width="50" height="30" fill="none" stroke="rgb(0, 0, 0)" pointer-events="none"/><rect x="2060" y="180" width="50" height="30" fill="none" stroke="rgb(0, 0, 0)" pointer-events="none"/><rect x="2110" y="180" width="50" height="30" fill="none" stroke="rgb(0, 0, 0)" pointer-events="none"/><path d="M 2040 341 L 1910 341 L 1910 220.1" fill="none" stroke="#0000ff" stroke-width="3" stroke-miterlimit="10" stroke-dasharray="9 9" pointer-events="none"/><path d="M 1910 213.35 L 1914.5 222.35 L 1910 220.1 L 1905.5 222.35 Z" fill="#0000ff" stroke="#0000ff" stroke-width="3" stroke-miterlimit="10" pointer-events="none"/><path d="M 2040 367 L 1990 367 L 1990 243.1" fill="none" stroke="#0000ff" stroke-width="3" stroke-miterlimit="10" stroke-dasharray="9 9" pointer-events="none"/><path d="M 1990 236.35 L 1994.5 245.35 L 1990 243.1 L 1985.5 245.35 Z" fill="#0000ff" stroke="#0000ff" stroke-width="3" stroke-miterlimit="10" pointer-events="none"/><path d="M 2000 150 L 1995 150 Q 1990 150 1990 160 L 1990 215 Q 1990 225 1985 225 L 1982.5 225 Q 1980 225 1985 225 L 1987.5 225 Q 1990 225 1990 235 L 1990 290 Q 1990 300 1995 300 L 2000 300" fill="none" stroke="rgb(0, 0, 0)" stroke-miterlimit="10" transform="translate(1990,0)scale(-1,1)translate(-1990,0)rotate(-90,1990,225)" pointer-events="none"/></g></svg>